<svg id="visual" viewBox="0 0 900 600" width="900" height="600" xmlns="http://www.w3.org/2000/svg" xmlns:xlink="http://www.w3.org/1999/xlink" version="1.1"><g stroke-width="1" stroke-linejoin="bevel"><path d="M425 292L463 251L441 195Z" fill="#4c566a" stroke="#4c566a"></path><path d="M441 195L282 257L425 292Z" fill="#3a4251" stroke="#3a4251"></path><path d="M565 252L514 217L463 251Z" fill="#2e3440" stroke="#2e3440"></path><path d="M463 251L514 217L441 195Z" fill="#313744" stroke="#313744"></path><path d="M441 195L470 59L403 136Z" fill="#434c5d" stroke="#434c5d"></path><path d="M403 136L354 127L441 195Z" fill="#434c5d" stroke="#434c5d"></path><path d="M354 127L282 257L441 195Z" fill="#373e4c" stroke="#373e4c"></path><path d="M526 412L565 252L463 251Z" fill="#3a4251" stroke="#3a4251"></path><path d="M514 217L470 59L441 195Z" fill="#434c5d" stroke="#434c5d"></path><path d="M354 127L265 178L282 257Z" fill="#373e4c" stroke="#373e4c"></path><path d="M502 0L470 59L592 0Z" fill="#4c566a" stroke="#4c566a"></path><path d="M403 136L376 0L354 127Z" fill="#434c5d" stroke="#434c5d"></path><path d="M354 127L173 61L265 178Z" fill="#464f62" stroke="#464f62"></path><path d="M265 178L212 276L282 257Z" fill="#495366" stroke="#495366"></path><path d="M330 447L386 452L425 292Z" fill="#3d4555" stroke="#3d4555"></path><path d="M386 452L526 412L425 292Z" fill="#434c5d" stroke="#434c5d"></path><path d="M425 292L526 412L463 251Z" fill="#313744" stroke="#313744"></path><path d="M330 447L425 292L282 257Z" fill="#343b48" stroke="#343b48"></path><path d="M271 436L330 447L282 257Z" fill="#495366" stroke="#495366"></path><path d="M212 276L217 378L282 257Z" fill="#373e4c" stroke="#373e4c"></path><path d="M217 378L271 436L282 257Z" fill="#373e4c" stroke="#373e4c"></path><path d="M470 59L376 0L403 136Z" fill="#404859" stroke="#404859"></path><path d="M173 61L170 195L265 178Z" fill="#3a4251" stroke="#3a4251"></path><path d="M265 178L170 195L212 276Z" fill="#495366" stroke="#495366"></path><path d="M212 276L50 335L217 378Z" fill="#4c566a" stroke="#4c566a"></path><path d="M653 309L651 288L565 252Z" fill="#404859" stroke="#404859"></path><path d="M636 108L470 59L514 217Z" fill="#343b48" stroke="#343b48"></path><path d="M376 0L340 0L354 127Z" fill="#3d4555" stroke="#3d4555"></path><path d="M631 364L653 309L565 252Z" fill="#4c566a" stroke="#4c566a"></path><path d="M526 412L631 364L565 252Z" fill="#3a4251" stroke="#3a4251"></path><path d="M636 108L514 217L565 252Z" fill="#4c566a" stroke="#4c566a"></path><path d="M470 59L502 0L376 0Z" fill="#2e3440" stroke="#2e3440"></path><path d="M722 172L565 252L651 288Z" fill="#4c566a" stroke="#4c566a"></path><path d="M722 172L636 108L565 252Z" fill="#4c566a" stroke="#4c566a"></path><path d="M631 364L654 348L653 309Z" fill="#3a4251" stroke="#3a4251"></path><path d="M340 0L173 61L354 127Z" fill="#373e4c" stroke="#373e4c"></path><path d="M636 108L592 0L470 59Z" fill="#343b48" stroke="#343b48"></path><path d="M348 551L513 538L386 452Z" fill="#3a4251" stroke="#3a4251"></path><path d="M386 452L513 538L526 412Z" fill="#434c5d" stroke="#434c5d"></path><path d="M526 412L614 500L631 364Z" fill="#434c5d" stroke="#434c5d"></path><path d="M631 364L663 473L654 348Z" fill="#4c566a" stroke="#4c566a"></path><path d="M348 551L386 452L330 447Z" fill="#4c566a" stroke="#4c566a"></path><path d="M210 507L348 551L271 436Z" fill="#3a4251" stroke="#3a4251"></path><path d="M271 436L348 551L330 447Z" fill="#464f62" stroke="#464f62"></path><path d="M756 208L651 288L787 351Z" fill="#495366" stroke="#495366"></path><path d="M756 208L722 172L651 288Z" fill="#3a4251" stroke="#3a4251"></path><path d="M636 108L677 0L592 0Z" fill="#404859" stroke="#404859"></path><path d="M340 0L188 0L173 61Z" fill="#495366" stroke="#495366"></path><path d="M170 195L83 247L212 276Z" fill="#343b48" stroke="#343b48"></path><path d="M217 378L210 507L271 436Z" fill="#3d4555" stroke="#3d4555"></path><path d="M102 112L83 247L170 195Z" fill="#313744" stroke="#313744"></path><path d="M102 112L170 195L173 61Z" fill="#404859" stroke="#404859"></path><path d="M513 538L614 500L526 412Z" fill="#495366" stroke="#495366"></path><path d="M787 351L651 288L653 309Z" fill="#404859" stroke="#404859"></path><path d="M722 172L723 128L636 108Z" fill="#464f62" stroke="#464f62"></path><path d="M154 0L102 112L173 61Z" fill="#343b48" stroke="#343b48"></path><path d="M116 517L210 507L217 378Z" fill="#2e3440" stroke="#2e3440"></path><path d="M614 500L663 473L631 364Z" fill="#313744" stroke="#313744"></path><path d="M787 351L653 309L654 348Z" fill="#495366" stroke="#495366"></path><path d="M722 172L756 208L723 128Z" fill="#3d4555" stroke="#3d4555"></path><path d="M188 0L154 0L173 61Z" fill="#464f62" stroke="#464f62"></path><path d="M843 0L677 0L723 128Z" fill="#4c566a" stroke="#4c566a"></path><path d="M723 128L677 0L636 108Z" fill="#3a4251" stroke="#3a4251"></path><path d="M261 600L349 600L348 551Z" fill="#3d4555" stroke="#3d4555"></path><path d="M348 551L349 600L513 538Z" fill="#404859" stroke="#404859"></path><path d="M513 538L533 600L614 500Z" fill="#434c5d" stroke="#434c5d"></path><path d="M0 350L50 335L83 247Z" fill="#434c5d" stroke="#434c5d"></path><path d="M83 247L50 335L212 276Z" fill="#404859" stroke="#404859"></path><path d="M349 600L533 600L513 538Z" fill="#3a4251" stroke="#3a4251"></path><path d="M614 500L632 600L663 473Z" fill="#434c5d" stroke="#434c5d"></path><path d="M210 507L261 600L348 551Z" fill="#404859" stroke="#404859"></path><path d="M222 600L261 600L210 507Z" fill="#313744" stroke="#313744"></path><path d="M785 411L787 351L654 348Z" fill="#464f62" stroke="#464f62"></path><path d="M45 427L116 517L217 378Z" fill="#313744" stroke="#313744"></path><path d="M116 517L222 600L210 507Z" fill="#495366" stroke="#495366"></path><path d="M50 335L45 427L217 378Z" fill="#404859" stroke="#404859"></path><path d="M755 519L785 411L663 473Z" fill="#404859" stroke="#404859"></path><path d="M663 473L785 411L654 348Z" fill="#313744" stroke="#313744"></path><path d="M0 78L0 168L102 112Z" fill="#464f62" stroke="#464f62"></path><path d="M102 112L0 168L83 247Z" fill="#4c566a" stroke="#4c566a"></path><path d="M50 335L0 350L45 427Z" fill="#3a4251" stroke="#3a4251"></path><path d="M533 600L632 600L614 500Z" fill="#3d4555" stroke="#3d4555"></path><path d="M0 168L0 350L83 247Z" fill="#3d4555" stroke="#3d4555"></path><path d="M0 0L0 78L102 112Z" fill="#464f62" stroke="#464f62"></path><path d="M632 600L755 519L663 473Z" fill="#464f62" stroke="#464f62"></path><path d="M0 350L0 417L45 427Z" fill="#404859" stroke="#404859"></path><path d="M45 427L0 493L116 517Z" fill="#3d4555" stroke="#3d4555"></path><path d="M900 153L853 119L756 208Z" fill="#343b48" stroke="#343b48"></path><path d="M756 208L853 119L723 128Z" fill="#373e4c" stroke="#373e4c"></path><path d="M900 238L756 208L900 254Z" fill="#313744" stroke="#313744"></path><path d="M154 0L0 0L102 112Z" fill="#434c5d" stroke="#434c5d"></path><path d="M0 417L0 493L45 427Z" fill="#4c566a" stroke="#4c566a"></path><path d="M116 517L89 600L222 600Z" fill="#3a4251" stroke="#3a4251"></path><path d="M0 493L89 600L116 517Z" fill="#495366" stroke="#495366"></path><path d="M900 254L756 208L787 351Z" fill="#434c5d" stroke="#434c5d"></path><path d="M900 254L787 351L900 395Z" fill="#4c566a" stroke="#4c566a"></path><path d="M900 395L787 351L785 411Z" fill="#3a4251" stroke="#3a4251"></path><path d="M853 119L843 0L723 128Z" fill="#434c5d" stroke="#434c5d"></path><path d="M900 0L843 0L853 119Z" fill="#343b48" stroke="#343b48"></path><path d="M632 600L753 600L755 519Z" fill="#343b48" stroke="#343b48"></path><path d="M900 552L900 395L785 411Z" fill="#373e4c" stroke="#373e4c"></path><path d="M900 238L900 153L756 208Z" fill="#3a4251" stroke="#3a4251"></path><path d="M900 552L785 411L755 519Z" fill="#4c566a" stroke="#4c566a"></path><path d="M0 493L0 600L89 600Z" fill="#373e4c" stroke="#373e4c"></path><path d="M900 153L900 0L853 119Z" fill="#464f62" stroke="#464f62"></path><path d="M753 600L825 600L755 519Z" fill="#4c566a" stroke="#4c566a"></path><path d="M825 600L900 552L755 519Z" fill="#3d4555" stroke="#3d4555"></path><path d="M825 600L900 600L900 552Z" fill="#313744" stroke="#313744"></path></g></svg>